<svg width="9" height="9" viewBox="0 0 9 9" fill="none" xmlns="http://www.w3.org/2000/svg">
<g clip-path="url(#clip0_453_212)">
<path d="M7.1518 1.84834C6.80465 1.49855 6.39158 1.22107 5.9365 1.03196C5.48142 0.842848 4.99336 0.745853 4.50055 0.746587C4.00761 0.745754 3.5194 0.842701 3.06419 1.03182C2.60897 1.22093 2.19578 1.49846 1.84855 1.84834C0.386422 3.31009 0.386422 5.68946 1.84855 7.15159C2.19583 7.50151 2.60908 7.77906 3.06436 7.96818C3.51964 8.1573 4.00792 8.25422 4.50092 8.25334C4.99371 8.25412 5.48175 8.15718 5.93683 7.96814C6.39191 7.77909 6.80499 7.50168 7.15217 7.15196C8.6143 5.69021 8.6143 3.31084 7.1518 1.84834ZM4.56805 1.49996H4.43342C4.4563 1.49959 4.47805 1.49659 4.50092 1.49659C4.5238 1.49659 4.54517 1.49959 4.56805 1.49996ZM6.8413 6.37496H6.00017L5.52842 7.31846C5.19924 7.43971 4.85135 7.50228 4.50055 7.50334C4.1491 7.50238 3.80055 7.43968 3.4708 7.31809L3.00017 6.37871H2.16205C1.85284 5.99429 1.64373 5.53922 1.55342 5.05421L2.25017 4.12496L1.79417 3.21259C1.94009 2.9033 2.13781 2.62123 2.3788 2.37859C2.71665 2.03968 3.13067 1.78651 3.5863 1.64021L4.50017 2.24996L5.41442 1.64059C5.87001 1.78677 6.28403 2.03981 6.62192 2.37859C6.86267 2.62092 7.06026 2.9026 7.20617 3.21146L6.75017 4.12496L7.44692 5.05421C7.35706 5.53767 7.14901 5.9914 6.8413 6.37496Z" fill="white"/>
<path d="M3.1875 4.125L3.75 5.625H5.25L5.8125 4.125L4.5 3.1875L3.1875 4.125Z" fill="white"/>
</g>
<defs>
<clipPath id="clip0_453_212">
<rect width="9" height="9" fill="white"/>
</clipPath>
</defs>
</svg>
