<svg width="24" height="24" viewBox="0 0 24 24" fill="none" xmlns="http://www.w3.org/2000/svg">
<path d="M20.9999 1H2.99991C2.47086 1.00106 1.96378 1.21169 1.58969 1.58578C1.2156 1.95988 1.00496 2.46695 1.00391 2.996V20.996C1.00496 21.525 1.2156 22.0321 1.58969 22.4062C1.96378 22.7803 2.47086 22.9909 2.99991 22.992H12.9999V13.992H9.99991V10.992H12.9999V9.382C12.9999 6.332 14.4899 4.992 17.0199 4.992C18.2299 4.992 18.8799 5.082 19.1799 5.123V7.993H17.4499C16.3699 7.993 15.9999 8.561 15.9999 9.713V10.993H19.1499L18.7219 13.993H15.9919V22.993H20.9919C21.5219 22.993 22.0319 22.782 22.4019 22.407C22.7719 22.032 22.9879 21.523 22.9879 20.997V2.997C22.9869 2.46795 22.7762 1.96088 22.4021 1.58678C22.028 1.21269 21.521 1.00206 20.9919 1.001L20.9999 1Z" fill="white"/>
</svg>
