<svg width="11" height="11" viewBox="0 0 11 11" fill="none" xmlns="http://www.w3.org/2000/svg">
<path d="M0.916016 8.25004V7.33337C1.20629 7.33337 1.42217 7.25699 1.56364 7.10421C1.70511 6.95143 2.00104 6.87504 2.45143 6.87504C2.90182 6.87504 3.1979 6.95143 3.33968 7.10421C3.48146 7.25699 3.68954 7.33337 3.96393 7.33337C4.25421 7.33337 4.47008 7.25699 4.61156 7.10421C4.75303 6.95143 5.04896 6.87504 5.49935 6.87504C5.93477 6.87504 6.23085 6.95143 6.3876 7.10421C6.54435 7.25699 6.76007 7.33337 7.03477 7.33337C7.32504 7.33337 7.5371 7.25699 7.67093 7.10421C7.80477 6.95143 8.09688 6.87504 8.54727 6.87504C8.99765 6.87504 9.29374 6.95143 9.43552 7.10421C9.57729 7.25699 9.79302 7.33337 10.0827 7.33337V8.25004C9.64727 8.25004 9.35134 8.17365 9.19489 8.02087C9.03845 7.8681 8.82257 7.79171 8.54727 7.79171C8.27196 7.79171 8.06388 7.8681 7.92302 8.02087C7.78215 8.17365 7.48607 8.25004 7.03477 8.25004C6.59935 8.25004 6.30342 8.17365 6.14697 8.02087C5.99053 7.8681 5.77465 7.79171 5.49935 7.79171C5.20907 7.79171 4.99335 7.8681 4.85218 8.02087C4.71102 8.17365 4.41493 8.25004 3.96393 8.25004C3.51293 8.25004 3.22082 8.17365 3.0876 8.02087C2.95438 7.8681 2.74232 7.79171 2.45143 7.79171C2.16054 7.79171 1.94482 7.8681 1.80427 8.02087C1.66371 8.17365 1.36763 8.25004 0.916016 8.25004ZM0.916016 6.41671V5.50004C1.20629 5.50004 1.42217 5.42365 1.56364 5.27087C1.70511 5.1181 2.00104 5.04171 2.45143 5.04171C2.88685 5.04171 3.17911 5.1181 3.32822 5.27087C3.47734 5.42365 3.68924 5.50004 3.96393 5.50004C4.25421 5.50004 4.46993 5.42365 4.6111 5.27087C4.75227 5.1181 5.04835 5.04171 5.49935 5.04171C5.93477 5.04171 6.22886 5.1181 6.38164 5.27087C6.53442 5.42365 6.74449 5.50004 7.01185 5.50004C7.30213 5.50004 7.51785 5.42365 7.65902 5.27087C7.80018 5.1181 8.09627 5.04171 8.54727 5.04171C8.98268 5.04171 9.27877 5.1181 9.43552 5.27087C9.59227 5.42365 9.80799 5.50004 10.0827 5.50004V6.41671C9.63199 6.41671 9.33209 6.34032 9.18297 6.18754C9.03386 6.03476 8.82196 5.95837 8.54727 5.95837C8.27257 5.95837 8.06449 6.03476 7.92302 6.18754C7.78154 6.34032 7.48546 6.41671 7.03477 6.41671C6.59935 6.41671 6.30342 6.34032 6.14697 6.18754C5.99053 6.03476 5.77465 5.95837 5.49935 5.95837C5.20907 5.95837 4.99702 6.03476 4.86318 6.18754C4.72935 6.34032 4.43724 6.41671 3.98685 6.41671C3.53646 6.41671 3.23671 6.34032 3.0876 6.18754C2.93849 6.03476 2.72643 5.95837 2.45143 5.95837C2.17643 5.95837 1.96071 6.03476 1.80427 6.18754C1.64782 6.34032 1.35174 6.41671 0.916016 6.41671ZM0.916016 4.58337V3.66671C1.20629 3.66671 1.42217 3.59032 1.56364 3.43754C1.70511 3.28476 2.00104 3.20837 2.45143 3.20837C2.88685 3.20837 3.17911 3.28476 3.32822 3.43754C3.47734 3.59032 3.68924 3.66671 3.96393 3.66671C4.25421 3.66671 4.46993 3.59032 4.6111 3.43754C4.75227 3.28476 5.04835 3.20837 5.49935 3.20837C5.93477 3.20837 6.22886 3.28476 6.38164 3.43754C6.53442 3.59032 6.74449 3.66671 7.01185 3.66671C7.30213 3.66671 7.51785 3.59032 7.65902 3.43754C7.80018 3.28476 8.09627 3.20837 8.54727 3.20837C8.98268 3.20837 9.27877 3.28476 9.43552 3.43754C9.59227 3.59032 9.80799 3.66671 10.0827 3.66671V4.58337C9.63199 4.58337 9.33209 4.50699 9.18297 4.35421C9.03386 4.20143 8.82196 4.12504 8.54727 4.12504C8.27257 4.12504 8.06449 4.20143 7.92302 4.35421C7.78154 4.50699 7.48546 4.58337 7.03477 4.58337C6.59935 4.58337 6.30342 4.50699 6.14697 4.35421C5.99053 4.20143 5.77465 4.12504 5.49935 4.12504C5.20907 4.12504 4.99702 4.20143 4.86318 4.35421C4.72935 4.50699 4.43724 4.58337 3.98685 4.58337C3.53646 4.58337 3.23671 4.50699 3.0876 4.35421C2.93849 4.20143 2.72643 4.12504 2.45143 4.12504C2.17643 4.12504 1.96071 4.20143 1.80427 4.35421C1.64782 4.50699 1.35174 4.58337 0.916016 4.58337Z" fill="white"/>
</svg>
