<svg width="40" height="40" viewBox="0 0 40 40" fill="none" xmlns="http://www.w3.org/2000/svg">
<circle cx="20" cy="20" r="20" fill="#803FC0"/>
<path d="M23.827 26.789C24.0137 26.789 24.1727 26.7233 24.304 26.592C24.4347 26.4613 24.5 26.3027 24.5 26.116C24.5 25.9287 24.4347 25.7697 24.304 25.639C24.1733 25.5077 24.0143 25.442 23.827 25.442C23.6397 25.442 23.4807 25.5077 23.35 25.639C23.2193 25.7703 23.154 25.9293 23.154 26.116C23.154 26.3027 23.2193 26.4613 23.35 26.592C23.4807 26.7233 23.6397 26.789 23.827 26.789ZM26 26.789C26.1867 26.789 26.3457 26.7233 26.477 26.592C26.6077 26.4613 26.673 26.3027 26.673 26.116C26.673 25.9287 26.6077 25.7697 26.477 25.639C26.3463 25.5077 26.1873 25.442 26 25.442C25.8127 25.442 25.6537 25.5077 25.523 25.639C25.3923 25.7703 25.327 25.9293 25.327 26.116C25.327 26.3027 25.3923 26.4613 25.523 26.592C25.6537 26.7233 25.8127 26.789 26 26.789ZM28.173 26.789C28.3597 26.789 28.5187 26.7233 28.65 26.592C28.7807 26.4613 28.846 26.3027 28.846 26.116C28.846 25.9287 28.7807 25.7697 28.65 25.639C28.5193 25.5077 28.3603 25.442 28.173 25.442C27.9857 25.442 27.8267 25.5077 27.696 25.639C27.5653 25.7703 27.5 25.9293 27.5 26.116C27.5 26.3027 27.5653 26.4613 27.696 26.592C27.8267 26.7233 27.9857 26.789 28.173 26.789ZM13.616 28C13.168 28 12.7867 27.8427 12.472 27.528C12.1573 27.2133 12 26.8323 12 26.385V13.615C12 13.1683 12.1573 12.7873 12.472 12.472C12.7867 12.1573 13.168 12 13.616 12H26.385C26.8317 12 27.2127 12.1573 27.528 12.472C27.8427 12.7867 28 13.168 28 13.616V19.566C27.8247 19.5053 27.6567 19.456 27.496 19.418C27.336 19.3807 27.1707 19.3433 27 19.306V13.616C27 13.462 26.936 13.3207 26.808 13.192C26.68 13.0633 26.5387 12.9993 26.384 13H13.616C13.462 13 13.3207 13.064 13.192 13.192C13.0633 13.32 12.9993 13.4613 13 13.616V26.385C13 26.5383 13.064 26.6793 13.192 26.808C13.32 26.9367 13.461 27.0007 13.615 27H19.281C19.305 27.1867 19.336 27.3603 19.374 27.521C19.412 27.681 19.461 27.8407 19.521 28H13.616ZM13 26V27V13V19.306V19.231V26ZM15.5 24.27H19.46C19.4967 24.0987 19.5467 23.933 19.61 23.773L19.81 23.269H15.5V24.27ZM15.5 20.5H22.08C22.4087 20.2693 22.7323 20.074 23.051 19.914C23.3697 19.7533 23.7117 19.6273 24.077 19.536V19.5H15.5V20.5ZM15.5 16.73H24.5V15.73H15.5V16.73ZM26 30.117C24.886 30.117 23.941 29.7287 23.165 28.952C22.3883 28.1753 22 27.23 22 26.116C22 25.002 22.3883 24.0567 23.165 23.28C23.9417 22.5033 24.8867 22.1153 26 22.116C27.1133 22.1167 28.0587 22.5047 28.836 23.28C29.6133 24.0553 30.0013 25.0007 30 26.116C30 27.2293 29.612 28.1743 28.836 28.951C28.0587 29.7277 27.1133 30.116 26 30.116" fill="white"/>
</svg>
