<svg width="29" height="29" viewBox="0 0 29 29" fill="none" xmlns="http://www.w3.org/2000/svg">
<circle cx="14.5" cy="14.5" r="13.5" stroke="white" stroke-width="2"/>
<g clip-path="url(#clip0_413_2154)">
<path fill-rule="evenodd" clip-rule="evenodd" d="M18.3983 14.3519C18.5702 14.5238 18.6667 14.7569 18.6667 15C18.6667 15.243 18.5702 15.4762 18.3983 15.6481L13.2127 20.8336C13.1282 20.9212 13.027 20.991 12.9152 21.0391C12.8034 21.0871 12.6831 21.1124 12.5614 21.1135C12.4396 21.1145 12.3189 21.0913 12.2063 21.0452C12.0936 20.9991 11.9913 20.9311 11.9052 20.845C11.8191 20.7589 11.7511 20.6566 11.705 20.5439C11.6589 20.4313 11.6357 20.3106 11.6368 20.1889C11.6378 20.0672 11.6631 19.9469 11.7111 19.835C11.7592 19.7232 11.829 19.622 11.9166 19.5375L16.4541 15L11.9166 10.4625C11.7496 10.2896 11.6572 10.058 11.6593 9.8177C11.6614 9.57735 11.7578 9.34744 11.9277 9.17748C12.0977 9.00752 12.3276 8.91112 12.5679 8.90903C12.8083 8.90694 13.0398 8.99934 13.2127 9.16632L18.3983 14.3519Z" fill="white"/>
</g>
<defs>
<clipPath id="clip0_413_2154">
<rect width="22" height="22" fill="white" transform="translate(4 4)"/>
</clipPath>
</defs>
</svg>
