<svg width="80" height="80" viewBox="0 0 80 80" fill="none" xmlns="http://www.w3.org/2000/svg">
<g filter="url(#filter0_d_849_848)">
<circle cx="40" cy="30" r="27" fill="white"/>
</g>
<g clip-path="url(#clip0_849_848)">
<path d="M21.8111 29.7721C21.8102 32.9649 22.651 36.0824 24.2496 38.8301L21.6582 48.2185L31.3411 45.6993C34.0192 47.146 37.0199 47.904 40.0692 47.9042H40.0772C50.1435 47.9042 58.3377 39.7765 58.342 29.7864C58.3439 24.9456 56.4457 20.3935 52.9969 16.9688C49.5487 13.5444 44.9627 11.6575 40.0765 11.6553C30.009 11.6553 21.8154 19.7826 21.8112 29.7721" fill="url(#paint0_linear_849_848)"/>
<path d="M21.1588 29.7667C21.1578 33.0743 22.0287 36.3033 23.6843 39.1495L21 48.8744L31.0301 46.2649C33.7937 47.76 36.9052 48.5483 40.0714 48.5494H40.0796C50.507 48.5494 58.9955 40.1294 59 29.7817C59.0018 24.7669 57.0353 20.0512 53.4633 16.5038C49.8908 12.9569 45.1408 11.0021 40.0796 11C29.6503 11 21.163 19.4189 21.1588 29.7667ZM27.1321 38.6593L26.7576 38.0694C25.1833 35.5856 24.3523 32.7152 24.3535 29.7679C24.3568 21.1671 31.4111 14.1696 40.0855 14.1696C44.2863 14.1714 48.2341 15.7962 51.2035 18.7443C54.1727 21.6927 55.8065 25.612 55.8055 29.7805C55.8016 38.3814 48.7471 45.3797 40.0796 45.3797H40.0733C37.2511 45.3782 34.4832 44.6262 32.0693 43.205L31.4948 42.867L25.5428 44.4154L27.1321 38.6593Z" fill="url(#paint1_linear_849_848)"/>
<path d="M35.3504 21.921C34.9962 21.14 34.6235 21.1242 34.2867 21.1105C34.0109 21.0987 33.6956 21.0996 33.3806 21.0996C33.0654 21.0996 32.5531 21.2173 32.1201 21.6864C31.6867 22.156 30.4653 23.2907 30.4653 25.5985C30.4653 27.9065 32.1594 30.1368 32.3956 30.4501C32.6321 30.7628 35.6661 35.6504 40.4714 37.5306C44.4649 39.0932 45.2776 38.7824 46.1443 38.7041C47.0112 38.626 48.9415 37.5697 49.3353 36.4743C49.7294 35.3791 49.7294 34.4403 49.6112 34.2441C49.4931 34.0486 49.1778 33.9313 48.705 33.6968C48.2321 33.4621 45.9079 32.3273 45.4746 32.1707C45.0412 32.0143 44.726 31.9363 44.4107 32.406C44.0955 32.8749 43.1901 33.9313 42.9142 34.2441C42.6385 34.5577 42.3626 34.5967 41.89 34.3621C41.4169 34.1267 39.8944 33.632 38.088 32.034C36.6826 30.7907 35.7338 29.2552 35.458 28.7855C35.1822 28.3165 35.4285 28.0623 35.6655 27.8286C35.878 27.6184 36.1385 27.2808 36.3751 27.007C36.6108 26.7331 36.6895 26.5376 36.8471 26.2248C37.0049 25.9116 36.9259 25.6377 36.8079 25.4031C36.6895 25.1684 35.7708 22.8485 35.3504 21.921Z" fill="white"/>
</g>
<defs>
<filter id="filter0_d_849_848" x="0" y="0" width="80" height="80" filterUnits="userSpaceOnUse" color-interpolation-filters="sRGB">
<feFlood flood-opacity="0" result="BackgroundImageFix"/>
<feColorMatrix in="SourceAlpha" type="matrix" values="0 0 0 0 0 0 0 0 0 0 0 0 0 0 0 0 0 0 127 0" result="hardAlpha"/>
<feOffset dy="10"/>
<feGaussianBlur stdDeviation="6.5"/>
<feComposite in2="hardAlpha" operator="out"/>
<feColorMatrix type="matrix" values="0 0 0 0 0 0 0 0 0 0 0 0 0 0 0 0 0 0 0.13 0"/>
<feBlend mode="normal" in2="BackgroundImageFix" result="effect1_dropShadow_849_848"/>
<feBlend mode="normal" in="SourceGraphic" in2="effect1_dropShadow_849_848" result="shape"/>
</filter>
<linearGradient id="paint0_linear_849_848" x1="1855.85" y1="3667.98" x2="1855.85" y2="11.6553" gradientUnits="userSpaceOnUse">
<stop stop-color="#1FAF38"/>
<stop offset="1" stop-color="#60D669"/>
</linearGradient>
<linearGradient id="paint1_linear_849_848" x1="1921" y1="3798.44" x2="1921" y2="11" gradientUnits="userSpaceOnUse">
<stop stop-color="#F9F9F9"/>
<stop offset="1" stop-color="white"/>
</linearGradient>
<clipPath id="clip0_849_848">
<rect width="38" height="38" fill="white" transform="translate(21 11)"/>
</clipPath>
</defs>
</svg>
