<svg width="10" height="10" viewBox="0 0 10 10" fill="none" xmlns="http://www.w3.org/2000/svg">
<g clip-path="url(#clip0_453_215)">
<path d="M1.97852 4.33752L2.42935 5.93294L3.22685 5.70752M3.60956 4.02002L3.57622 5.12835C3.57186 5.27395 3.62551 5.41531 3.72537 5.52135C3.82524 5.62738 3.96313 5.6894 4.10872 5.69377C4.25432 5.69813 4.39568 5.64448 4.50172 5.54462C4.60775 5.44476 4.66978 5.30686 4.67414 5.16127L4.70727 4.05294M5.20914 5.94044L5.36914 4.29044L5.74039 4.32648C5.83522 4.33561 5.92732 4.36335 6.01142 4.40809C6.09553 4.45284 6.16999 4.51373 6.23055 4.58727C6.29111 4.66081 6.33658 4.74557 6.36436 4.8367C6.39215 4.92782 6.4017 5.02353 6.39247 5.11835L6.37227 5.3246C6.36313 5.41941 6.3354 5.51149 6.29067 5.59558C6.24593 5.67967 6.18507 5.75412 6.11155 5.81468C6.03803 5.87524 5.95329 5.92072 5.86219 5.94851C5.77109 5.97631 5.6754 5.98588 5.5806 5.97669L5.20914 5.94044Z" stroke="white" stroke-width="0.5" stroke-linecap="round" stroke-linejoin="round"/>
<path d="M7.96405 4.69183C7.93513 4.38991 7.66694 4.1686 7.36502 4.19752C7.06311 4.22644 6.8418 4.49463 6.87072 4.79654L6.92405 5.35337C6.95297 5.65528 7.22116 5.87659 7.52307 5.84768C7.82499 5.81876 8.0463 5.55057 8.01738 5.24865L7.96405 4.69183Z" stroke="white" stroke-width="0.5" stroke-linecap="round" stroke-linejoin="round"/>
<path d="M8.02148 1.14587H1.97982C1.51958 1.14587 1.14648 1.51897 1.14648 1.97921V8.02087C1.14648 8.48111 1.51958 8.85421 1.97982 8.85421H8.02148C8.48172 8.85421 8.85482 8.48111 8.85482 8.02087V1.97921C8.85482 1.51897 8.48172 1.14587 8.02148 1.14587Z" stroke="white" stroke-width="0.5" stroke-linecap="round" stroke-linejoin="round"/>
</g>
<defs>
<clipPath id="clip0_453_215">
<rect width="10" height="10" fill="white"/>
</clipPath>
</defs>
</svg>
