<svg width="12" height="12" viewBox="0 0 12 12" fill="none" xmlns="http://www.w3.org/2000/svg">
<path d="M4.66211 6.0972C5.14086 6.1402 5.70461 5.9887 5.55286 5.5862M9.41711 6.53545L9.82211 6.48545C10.2001 6.4392 10.2721 6.3062 10.2034 6.06745M11.0919 4.7567L11.1244 4.5927C10.9444 4.2867 10.7644 4.2082 10.5844 4.0907L10.0519 4.1227M11.0914 4.7567L11.0284 5.0747L10.6221 5.01595C10.5634 5.13345 10.3979 5.2372 10.1866 5.27845L9.72661 5.36845L8.93911 5.52245L8.88561 5.8037M5.86861 6.85095C5.83436 7.08345 5.60836 7.25845 5.36411 7.24245C5.12011 7.2262 4.94961 7.0247 4.98411 6.79245C5.01811 6.55995 5.24411 6.38495 5.48811 6.40095C5.73261 6.4172 5.90286 6.61845 5.86861 6.85095Z" stroke="white" stroke-width="0.5" stroke-linecap="round" stroke-linejoin="round"/>
<path d="M9.95153 5.69178C10.1588 6.02178 10.3663 6.35153 10.9323 6.35003L10.4188 5.61128M8.22528 6.49003L7.10403 6.41778L6.93203 7.25728C6.65803 7.28428 6.52603 7.33403 6.16803 7.30103M9.30853 7.00453C9.26928 7.44678 8.87753 7.52478 8.42603 7.46253L6.93178 7.25753M8.86753 6.98553L8.23928 5.44328M5.11328 5.50128C5.46953 5.56403 5.87103 5.58528 6.24003 5.57003C6.61278 5.55453 6.95253 5.50153 7.17778 5.41553" stroke="white" stroke-width="0.5" stroke-linecap="round" stroke-linejoin="round"/>
<path d="M6.29359 5.98046L6.35009 6.40946C6.85284 6.42996 7.31409 6.47171 7.66259 6.23221C8.06109 5.95796 8.15134 5.71871 8.11209 5.44046M6.55984 4.34621C6.25734 4.18121 5.99309 4.03546 5.74409 3.99121C5.34809 3.92121 5.11084 3.86221 4.55859 4.07196" stroke="white" stroke-width="0.5" stroke-linecap="round" stroke-linejoin="round"/>
<path d="M7.72331 5.4417L8.02831 5.4447C8.36981 5.4482 8.60381 5.3327 8.78631 5.1922C9.02256 5.01045 9.67606 4.9297 10.2481 4.8387C10.4018 4.58795 10.3531 4.3382 10.2318 4.2582L9.85856 4.0122C9.20531 4.05645 8.68256 4.06645 8.20656 4.2667C7.97606 4.3642 7.63106 4.3792 7.24031 4.37045M6.55456 4.3427C6.90131 4.6292 7.09456 5.01945 7.24881 5.4387M3.62681 5.26695C3.52731 5.04495 3.37681 4.7852 3.14356 4.89545M2.95831 3.78745L3.97831 3.1217C4.20381 3.2327 4.32331 3.3882 4.31206 3.5857C4.30331 3.7357 4.22131 3.82945 4.15706 3.9147M4.26981 4.73295L3.62656 5.2667M3.14331 4.8952L2.91406 4.4872L2.95806 3.7872" stroke="white" stroke-width="0.5" stroke-linecap="round" stroke-linejoin="round"/>
<path d="M4.15796 3.91455C4.10346 3.98705 4.06196 4.0533 4.08971 4.1428L4.27071 4.7328M4.38546 5.3368L4.58696 6.39205M10.1507 6.85255C10.1507 6.91005 10.1469 6.96847 10.1392 7.0278C10.0407 7.78555 9.34571 8.39005 8.58646 8.3778C8.14571 8.37055 7.78046 8.1573 7.57046 7.8318M2.61271 7.5118C2.58771 7.7048 2.41021 7.8593 2.21646 7.85605C2.02271 7.8528 1.88596 7.69355 1.91121 7.50005C1.93621 7.30705 2.11371 7.15255 2.30721 7.1558C2.50096 7.15905 2.63796 7.3183 2.61271 7.5113V7.5118Z" stroke="white" stroke-width="0.5" stroke-linecap="round" stroke-linejoin="round"/>
<path d="M3.42936 6.64124C3.59911 6.88299 3.68011 7.19224 3.63636 7.52799C3.53836 8.28549 2.84336 8.88999 2.08386 8.87799C1.32461 8.86549 0.788359 8.24149 0.886609 7.48374C0.984859 6.72599 1.67986 6.12124 2.43936 6.13374C2.50803 6.1349 2.57486 6.14099 2.63986 6.15199" stroke="white" stroke-width="0.5" stroke-linecap="round" stroke-linejoin="round"/>
<path d="M4.10987 7.04601C4.16987 5.52801 3.15437 5.15101 1.96387 5.36101C1.67487 5.41151 1.32937 5.50776 1.40512 5.78251M3.57362 5.64126L3.38037 5.91251M3.17312 6.20276L2.47137 7.18551" stroke="white" stroke-width="0.5" stroke-linecap="round" stroke-linejoin="round"/>
</svg>
