<svg width="40" height="40" viewBox="0 0 40 40" fill="none" xmlns="http://www.w3.org/2000/svg">
<circle cx="20" cy="20" r="20" fill="#803FC0"/>
<path d="M15 17C16.933 17 18.5 15.433 18.5 13.5C18.5 11.567 16.933 10 15 10C13.067 10 11.5 11.567 11.5 13.5C11.5 15.433 13.067 17 15 17Z" fill="#2F88FF" stroke="white" stroke-width="2" stroke-linejoin="round"/>
<path d="M25 17C26.933 17 28.5 15.433 28.5 13.5C28.5 11.567 26.933 10 25 10C23.067 10 21.5 11.567 21.5 13.5C21.5 15.433 23.067 17 25 17Z" fill="#2F88FF" stroke="white" stroke-width="2" stroke-linejoin="round"/>
<path d="M10 30C10 29.5556 10 28.0556 10 25.5C10 22.7386 11.8851 20.5 14.2105 20.5C15.3333 20.5 16.1754 20.5 16.7368 20.5C18.7793 20.5 20 22.5134 20 22.5134" stroke="white" stroke-width="2" stroke-linecap="round" stroke-linejoin="round"/>
<path d="M30 30C30 29.5556 30 28.0556 30 25.5C30 22.7386 28.0925 20.5 25.7394 20.5C24.6032 20.5 23.7511 20.5 23.183 20.5C21.2024 20.5 19.9961 22.5134 20 22.5134" stroke="white" stroke-width="2" stroke-linecap="round" stroke-linejoin="round"/>
<path d="M13.5 28H27" stroke="white" stroke-width="2" stroke-linecap="round" stroke-linejoin="round"/>
<path d="M25.1484 26.1292L25.7682 26.7528L27.0078 27.9999L25.7682 29.2806L25.1484 29.921" stroke="white" stroke-width="2" stroke-linecap="round" stroke-linejoin="round"/>
<path d="M15.1642 26.1161L14.5346 26.7429L13.2754 27.9964L14.5346 29.2708L15.1642 29.908" stroke="white" stroke-width="2" stroke-linecap="round" stroke-linejoin="round"/>
</svg>
