<svg width="29" height="29" viewBox="0 0 29 29" fill="none" xmlns="http://www.w3.org/2000/svg">
<circle cx="14.5" cy="14.5" r="13.5" transform="matrix(-1 0 0 1 29 0)" stroke="white" stroke-width="2"/>
<g clip-path="url(#clip0_413_2160)">
<path fill-rule="evenodd" clip-rule="evenodd" d="M10.6017 14.3519C10.4298 14.5238 10.3333 14.7569 10.3333 15C10.3333 15.243 10.4298 15.4762 10.6017 15.6481L15.7873 20.8336C15.8718 20.9212 15.973 20.991 16.0848 21.0391C16.1966 21.0871 16.3169 21.1124 16.4386 21.1135C16.5604 21.1145 16.6811 21.0913 16.7937 21.0452C16.9064 20.9991 17.0087 20.9311 17.0948 20.845C17.1809 20.7589 17.2489 20.6566 17.295 20.5439C17.3411 20.4313 17.3643 20.3106 17.3632 20.1889C17.3622 20.0672 17.3369 19.9469 17.2889 19.835C17.2408 19.7232 17.171 19.622 17.0834 19.5375L12.5459 15L17.0834 10.4625C17.2504 10.2896 17.3428 10.058 17.3407 9.8177C17.3386 9.57735 17.2422 9.34744 17.0723 9.17748C16.9023 9.00752 16.6724 8.91112 16.4321 8.90903C16.1917 8.90694 15.9602 8.99934 15.7873 9.16632L10.6017 14.3519Z" fill="white"/>
</g>
<defs>
<clipPath id="clip0_413_2160">
<rect width="22" height="22" fill="white" transform="matrix(-1 0 0 1 25 4)"/>
</clipPath>
</defs>
</svg>
