<svg width="12" height="12" viewBox="0 0 12 12" fill="none" xmlns="http://www.w3.org/2000/svg">
<path d="M7.59995 7.39995L8.17495 5.32495L6.39995 4.09995L5.82495 6.17495L7.59995 7.39995ZM1.99995 9.41245L1.58745 9.21245C1.32912 9.10412 1.15412 8.91879 1.06245 8.65645C0.970786 8.39412 0.983286 8.13362 1.09995 7.87495L1.99995 5.92495V9.41245ZM3.99995 10.5C3.72495 10.5 3.48962 10.4 3.29395 10.2C3.09829 9.99995 3.00029 9.76245 2.99995 9.48745V6.49995L4.33745 10.175C4.36245 10.2333 4.38329 10.2896 4.39995 10.344C4.41662 10.3983 4.44579 10.4503 4.48745 10.5H3.99995ZM6.57495 10.4375C6.31662 10.5291 6.05829 10.5166 5.79995 10.4C5.54162 10.2833 5.36662 10.0958 5.27495 9.83745L3.06245 3.72495C2.97079 3.46662 2.98329 3.21029 3.09995 2.95595C3.21662 2.70162 3.40412 2.52879 3.66245 2.43745L7.42495 1.06245C7.68329 0.970786 7.93962 0.983286 8.19395 1.09995C8.44829 1.21662 8.62112 1.40412 8.71245 1.66245L10.9375 7.77495C11.0291 8.03329 11.0166 8.28962 10.9 8.54395C10.7833 8.79829 10.5958 8.97112 10.3375 9.06245L6.57495 10.4375ZM6.22495 9.49995L9.99995 8.12495L7.76245 1.99995L3.99995 3.37495L6.22495 9.49995Z" fill="white"/>
</svg>
