<svg width="7" height="7" viewBox="0 0 7 7" fill="none" xmlns="http://www.w3.org/2000/svg">
<path d="M6.41719 1.75V2.77083L5.97969 2.91667L5.53052 2.19917C5.4926 2.13792 5.39635 2.16417 5.39635 2.23708V3.28125C5.39635 3.56708 5.2826 3.82375 5.10469 4.01917V6.125H4.37552V4.375H4.3026C4.24135 4.375 4.1801 4.36625 4.12177 4.3575L2.82677 4.14167L2.5001 4.72792L2.7801 6.125H2.04219L1.75052 4.73958C1.74177 4.65208 1.75052 4.56458 1.79719 4.48875L2.09469 3.96083C1.94987 3.88033 1.82853 3.76349 1.74261 3.62182C1.65668 3.48015 1.60915 3.31854 1.60469 3.15292C1.59302 3.19667 1.58719 3.26083 1.59594 3.35417C1.60469 3.4825 1.63677 3.67208 1.61635 3.88208C1.60469 4.09208 1.50844 4.30792 1.38594 4.45083C1.26052 4.59375 1.12344 4.69292 0.977605 4.76875L0.773438 4.56458C0.828855 4.4275 0.884271 4.305 0.895938 4.19125C0.913438 4.08333 0.893021 3.99583 0.860938 3.91708L0.706355 3.5875C0.645105 3.43875 0.569271 3.22292 0.583855 2.96917C0.592605 2.72125 0.729688 2.3975 0.989271 2.21958C1.25177 2.04167 1.53469 2.01833 1.7651 2.065C1.91094 2.09417 2.05969 2.16417 2.18802 2.26333C2.29594 2.21375 2.42135 2.1875 2.5526 2.1875H4.22969V2.04167C4.22969 1.39708 4.75177 0.875 5.39635 0.875H6.41719L6.1576 1.26583C6.3151 1.37083 6.41719 1.54875 6.41719 1.75Z" fill="white"/>
</svg>
