<svg width="10" height="10" viewBox="0 0 10 10" fill="none" xmlns="http://www.w3.org/2000/svg">
<path d="M7.05482 7.13337L6.72148 6.56671L7.32982 4.74587L7.91732 4.55004L8.33398 4.86254V4.92087C8.33398 4.95004 8.34648 4.97504 8.34648 5.00004C8.34648 5.82087 8.07148 6.54587 7.52565 7.17087L7.05482 7.13337ZM4.06315 6.25004L3.49232 4.57087L5.00065 3.51254L6.50898 4.57087L5.93815 6.25004H4.06315ZM5.00065 8.34587C4.63398 8.34587 4.28815 8.28754 3.95898 8.17087L3.67148 7.54171L3.94648 7.08337H6.07565L6.32982 7.54171L6.04232 8.17087C5.71315 8.28754 5.36732 8.34587 5.00065 8.34587ZM2.47565 7.17087C2.25482 6.91254 2.06315 6.56671 1.90065 6.14587C1.73815 5.72087 1.65482 5.33754 1.65482 5.00004C1.65482 4.97504 1.66732 4.95004 1.66732 4.92087V4.86254L2.08398 4.55004L2.67148 4.74587L3.27982 6.56671L2.94648 7.13337L2.47565 7.17087ZM4.58398 2.20421V2.78754L2.91732 3.94171L2.35898 3.76671L2.18398 3.20004C2.36732 2.91671 2.63815 2.63337 2.99648 2.35837C3.35482 2.08337 3.69648 1.90421 4.02148 1.81254L4.58398 2.20421ZM5.97982 1.81254C6.30482 1.90421 6.64648 2.08337 7.00482 2.35837C7.36315 2.63337 7.63398 2.91671 7.81732 3.20004L7.64232 3.76671L7.08398 3.94587L5.41732 2.79171V2.20421L5.97982 1.81254ZM2.05482 2.05421C1.25065 2.87087 0.833984 3.85421 0.833984 5.00004C0.833984 6.14587 1.25065 7.12921 2.05482 7.94587C2.85898 8.76254 3.85482 9.16671 5.00065 9.16671C6.14648 9.16671 7.12982 8.75004 7.94648 7.94587C8.76315 7.14171 9.16732 6.14587 9.16732 5.00004C9.16732 3.85421 8.75065 2.87087 7.94648 2.05421C7.14232 1.23754 6.14648 0.833374 5.00065 0.833374C3.85482 0.833374 2.87148 1.25004 2.05482 2.05421Z" fill="white"/>
</svg>
