<svg width="6" height="6" viewBox="0 0 6 6" fill="none" xmlns="http://www.w3.org/2000/svg">
<path d="M4.97 0.83125C4.47417 0.35 3.88792 0.0729167 3.20833 0V1.05583L5.83333 2.56667C5.75167 1.89583 5.46292 1.3125 4.97 0.83125ZM2.91667 5.83333C3.92 5.83333 4.71333 5.43083 5.29958 4.62583L4.3925 4.08333L1.77042 5.6C2.135 5.75458 2.52 5.83333 2.91667 5.83333ZM3.20833 2.74458L5.58542 4.10375C5.71375 3.82958 5.79833 3.54083 5.83333 3.24042L3.20833 1.72958V2.74458ZM0.548333 4.61125C0.740833 4.87667 0.950833 5.0925 1.18125 5.25L3.80333 3.7625L2.91667 3.25208L0.548333 4.61125ZM2.63667 0C2.33333 0.02625 2.04167 0.105 1.75 0.233333V3.25208L2.63667 2.74458V0ZM0 2.91667C0 3.32208 0.0875 3.72458 0.259583 4.11833L1.16667 3.58167V0.583333C0.387917 1.16667 0 1.93958 0 2.91667Z" fill="white"/>
</svg>
