<svg width="14" height="7" viewBox="0 0 14 7" fill="none" xmlns="http://www.w3.org/2000/svg">
<path d="M14 7C13.72 7 13.438 6.93392 13.1947 6.82163C12.9373 6.69862 12.6557 6.63417 12.3704 6.63291C12.0837 6.63359 11.8008 6.69805 11.5422 6.82163C11.2958 6.93364 11.023 7 10.7371 7C10.4602 6.99868 10.1869 6.93785 9.93551 6.82163C9.67702 6.69814 9.3943 6.63367 9.10782 6.63291C8.81522 6.63291 8.5327 6.70291 8.28322 6.82163C8.03053 6.93799 7.75584 6.99881 7.47766 7C7.20056 6.99961 6.92688 6.93874 6.67573 6.82163C6.41742 6.69822 6.1349 6.63375 5.84861 6.63291C5.55293 6.63291 5.27405 6.70291 5.02373 6.82163C4.77144 6.93828 4.49695 6.99913 4.21901 7C3.94247 6.99937 3.66939 6.9385 3.41876 6.82163C3.16564 6.70291 2.8862 6.63291 2.5908 6.63291C2.2954 6.63291 2.09576 6.70291 1.84236 6.82163C1.59904 6.93392 1.39996 7 1.11996 7V5.77411C1.39996 5.77411 1.59904 5.70803 1.84236 5.59574C2.09548 5.4801 2.33516 5.4101 2.63056 5.4101C2.92596 5.4101 3.18524 5.4801 3.43864 5.59574C3.68224 5.70775 3.94321 5.77411 4.22909 5.77411C4.51497 5.77411 4.78237 5.70803 5.02905 5.59574C5.28646 5.47494 5.56707 5.41159 5.85141 5.4101C6.14597 5.4101 6.42709 5.4801 6.67714 5.59574C6.92046 5.70775 7.19262 5.77411 7.47822 5.77411C7.76382 5.77411 8.03626 5.70803 8.28322 5.59574C8.54123 5.47466 8.82254 5.41131 9.10754 5.4101C9.40266 5.4101 9.68491 5.4801 9.93523 5.59574C10.1783 5.70775 10.4546 5.77411 10.7369 5.77411C11.0149 5.77328 11.2895 5.71244 11.5419 5.59574C11.8014 5.47496 12.0839 5.41163 12.3701 5.4101C12.6622 5.4101 12.9447 5.4801 13.1944 5.59574C13.4378 5.70775 13.7197 5.77411 13.9997 5.77411L14 7ZM10.7206 1.87972L13.0911 2.06816L12.9122 0.835273L11.172 0.710109C10.7016 0.686868 10.7693 1.16625 10.7693 1.16625L10.7206 1.87972ZM6.32489 1.59886C6.7603 1.59886 7.11086 1.24213 7.11086 0.799432C7.11086 0.356454 6.76058 0 6.32489 0C5.89005 0 5.54033 0.356734 5.54033 0.799432C5.54033 1.24213 5.89005 1.59886 6.32489 1.59886ZM1.47416 4.68039C1.57329 4.65065 1.66991 4.6131 1.76312 4.5681C2.01652 4.44938 2.29568 4.37966 2.59108 4.37966C2.88648 4.37966 3.16592 4.44938 3.41904 4.5681C3.66264 4.68039 3.93341 4.74647 4.21929 4.74647C4.49733 4.74564 4.77192 4.68479 5.02429 4.5681C5.28183 4.44475 5.56362 4.38037 5.84917 4.37966C6.14373 4.37966 6.42625 4.44938 6.6763 4.5681C6.92744 4.68521 7.20112 4.74608 7.47822 4.74647C7.76382 4.74647 8.03654 4.68067 8.2835 4.5681C8.54107 4.44515 8.82269 4.38079 9.1081 4.37966C9.40322 4.37966 9.68546 4.44938 9.93579 4.5681C10.1871 4.68432 10.4605 4.74515 10.7374 4.74647C11.0155 4.74564 11.2901 4.68479 11.5424 4.5681C11.8011 4.44462 12.084 4.38025 12.3707 4.37966C12.6627 4.37966 12.9452 4.44938 13.195 4.5681C13.4462 4.68525 13.72 4.74612 13.9972 4.74647L13.7306 2.56042L3.87797 1.72095L5.36505 0.194328L4.71237 0.134965L3.22724 1.66495L0.000232217 1.3939C-0.0193678 2.51394 1.2076 4.3763 1.47416 4.68039Z" fill="white"/>
</svg>
