<svg width="10" height="10" viewBox="0 0 10 10" fill="none" xmlns="http://www.w3.org/2000/svg">
<path d="M5 10C4.39167 9.925 3.7875 9.7605 3.1875 9.5065C2.5875 9.2525 2.05217 8.88783 1.5815 8.4125C1.11083 7.93717 0.7295 7.33717 0.437501 6.6125C0.145501 5.88783 -0.000332763 5.017 5.70125e-07 4V3.5H0.500001C0.925 3.5 1.3625 3.55417 1.8125 3.6625C2.2625 3.77083 2.68333 3.93333 3.075 4.15C3.175 3.43333 3.40217 2.69783 3.7565 1.9435C4.11083 1.18917 4.52533 0.541333 5 0C5.475 0.541667 5.88967 1.18967 6.244 1.944C6.59833 2.69833 6.82533 3.43367 6.925 4.15C7.31667 3.93333 7.7375 3.77083 8.1875 3.6625C8.6375 3.55417 9.075 3.5 9.5 3.5H10V4C10 5.01667 9.85417 5.8875 9.5625 6.6125C9.27083 7.3375 8.88967 7.9375 8.419 8.4125C7.94833 8.8875 7.415 9.25217 6.819 9.5065C6.223 9.76083 5.61667 9.92533 5 10ZM4.975 8.975C4.88333 7.59167 4.47283 6.54583 3.7435 5.8375C3.01417 5.12917 2.108 4.69167 1.025 4.525C1.11667 5.95 1.53967 7.0125 2.294 7.7125C3.04833 8.4125 3.942 8.83333 4.975 8.975ZM5 5.8C5.125 5.61667 5.27717 5.42717 5.4565 5.2315C5.63583 5.03583 5.80867 4.867 5.975 4.725C5.95833 4.25 5.86467 3.75417 5.694 3.2375C5.52333 2.72083 5.292 2.21667 5 1.725C4.70833 2.21667 4.477 2.72083 4.306 3.2375C4.135 3.75417 4.04133 4.25 4.025 4.725C4.19167 4.86667 4.36667 5.0355 4.55 5.2315C4.73333 5.4275 4.88333 5.617 5 5.8ZM5.975 8.75C6.28333 8.65 6.60417 8.50417 6.9375 8.3125C7.27083 8.12083 7.58133 7.8605 7.869 7.5315C8.15667 7.2025 8.4025 6.792 8.6065 6.3C8.8105 5.808 8.93333 5.21633 8.975 4.525C8.19167 4.64167 7.50417 4.90217 6.9125 5.3065C6.32083 5.71083 5.86667 6.22533 5.55 6.85C5.65 7.11667 5.7355 7.40833 5.8065 7.725C5.8775 8.04167 5.93367 8.38333 5.975 8.75Z" fill="white"/>
</svg>
