<svg width="6" height="10" viewBox="0 0 6 10" fill="none" xmlns="http://www.w3.org/2000/svg">
<path d="M2.28092 2.11938C2.69483 2.11938 3.02695 1.74859 3.02695 1.29179C3.02695 0.834794 2.69483 0.463996 2.28092 0.463996C1.87015 0.463996 1.53471 0.834794 1.53471 1.29179C1.53471 1.74859 1.87015 2.11938 2.28092 2.11938ZM2.49231 2.39998H0.276923C-0.0923077 2.39998 -0.0923077 2.99998 0.276923 2.99998H2.49231C2.86154 2.99998 2.86154 2.39998 2.49231 2.39998ZM6 2.65078C6 1.73339 5.70369 0.856993 5.16369 0.166399C5.16609 0.163999 5.02745 0 5.02745 0L2.92652 2.32958L2.89071 2.36798L2.91065 2.39718C2.94295 2.46098 2.96086 2.53198 2.96825 2.60278C2.97046 2.63198 2.96825 2.66218 2.96511 2.69238C2.96105 2.75398 2.95034 2.81438 2.92652 2.87158L2.92431 2.87738L2.91083 2.91218L2.89717 2.94138C2.80486 3.09858 2.64683 3.19998 2.45483 3.19998H1.2V6.39995L0.796246 9.44653C0.752123 9.69753 0.928615 9.94172 1.15495 9.99052C1.38129 10.0419 1.70769 9.85353 1.75385 9.59993L2.12308 6.19995H2.30769L2.93354 9.62553C2.97969 9.87912 3.30314 10.0419 3.53151 9.99052C3.756 9.94172 3.88117 9.69753 3.83705 9.44653L3.23077 6.19375V3.47137L4.95249 5.29836C4.95249 5.29836 5.12843 5.13336 5.12843 5.13116C5.66585 4.44117 6 3.56457 6 2.65078ZM5.61951 2.99998C5.55785 3.59997 5.23514 4.32557 4.83065 4.85636C4.4568 4.44297 3.6 3.66437 3.23077 3.15418V2.99998H5.61951ZM5.61951 2.39998H3.21268C3.65483 1.79999 4.48154 0.993392 4.90523 0.524996C5.31157 1.05499 5.56006 1.59999 5.61951 2.39998Z" fill="white"/>
</svg>
