<svg width="10" height="9" viewBox="0 0 10 9" fill="none" xmlns="http://www.w3.org/2000/svg">
<path d="M1.36364 5.85H2.27273C2.51383 5.85 2.74506 5.94482 2.91555 6.1136C3.08604 6.28239 3.18182 6.5113 3.18182 6.75V7.65H3.63636V6.75C3.63636 6.5113 3.73214 6.28239 3.90263 6.1136C4.07312 5.94482 4.30435 5.85 4.54545 5.85H5.45455C5.69565 5.85 5.92688 5.94482 6.09737 6.1136C6.26786 6.28239 6.36364 6.5113 6.36364 6.75V7.65H6.81818V6.75C6.81818 6.5113 6.91396 6.28239 7.08445 6.1136C7.25494 5.94482 7.48617 5.85 7.72727 5.85H8.63636C8.87747 5.85 9.1087 5.94482 9.27919 6.1136C9.44968 6.28239 9.54545 6.5113 9.54545 6.75V7.65H10V9H0V7.65H0.454545V6.75C0.454545 6.5113 0.550324 6.28239 0.720812 6.1136C0.8913 5.94482 1.12253 5.85 1.36364 5.85ZM4.54545 2.25L6.36364 3.6L4.54545 4.95V2.25ZM1.36364 0H8.63636C8.87747 0 9.1087 0.0948211 9.27919 0.263604C9.44968 0.432387 9.54545 0.661305 9.54545 0.9V5.193C9.27009 5.03235 8.95598 4.94838 8.63636 4.95V0.9H1.36364V4.95C1.03182 4.95 0.722727 5.0355 0.454545 5.193V0.9C0.454545 0.661305 0.550324 0.432387 0.720812 0.263604C0.8913 0.0948211 1.12253 0 1.36364 0Z" fill="white"/>
</svg>
