<svg width="8" height="9" viewBox="0 0 8 9" fill="none" xmlns="http://www.w3.org/2000/svg">
<path d="M3.42856 6.63044V8M3.42856 6.63044C3.42856 5.41304 4.33341 3.646 5.44654 2.65778L5.85711 2.29348V2.21739H4.43655M3.42856 6.63044C3.42856 5.41304 2.5237 3.646 1.41057 2.65778L1 2.29348V2.21739H4.43655M3.42856 8H1.99999M3.42856 8H4.85712M4.43655 2.21739C4.46413 1.95464 4.56251 1.70601 4.71982 1.50151C4.87713 1.29702 5.08665 1.14539 5.32307 1.06494C5.5595 0.984494 5.81274 0.978662 6.05221 1.04815C6.29168 1.11764 6.50715 1.25947 6.67261 1.45654C6.83808 1.6536 6.94646 1.89747 6.98467 2.1587C7.02288 2.41994 6.9893 2.68737 6.88796 2.92872C6.78663 3.17006 6.62189 3.37501 6.41362 3.51882C6.20535 3.66262 5.96245 3.73914 5.71425 3.73913M2.14285 3.43478H4.71426" stroke="white"/>
</svg>
