<svg width="8" height="8" viewBox="0 0 8 8" fill="none" xmlns="http://www.w3.org/2000/svg">
<g clip-path="url(#clip0_453_207)">
<path d="M6.00018 5.00001C6.3538 5.00001 6.69294 5.14048 6.94299 5.39053C7.19304 5.64058 7.33352 5.97972 7.33352 6.33334C7.33352 6.68696 7.19304 7.0261 6.94299 7.27615C6.69294 7.5262 6.3538 7.66667 6.00018 7.66667C5.64656 7.66667 5.30742 7.5262 5.05737 7.27615C4.80732 7.0261 4.66685 6.68696 4.66685 6.33334C4.66685 5.97972 4.80732 5.64058 5.05737 5.39053C5.30742 5.14048 5.64656 5.00001 6.00018 5.00001ZM6.00018 5.66667C5.82337 5.66667 5.6538 5.73691 5.52878 5.86194C5.40375 5.98696 5.33352 6.15653 5.33352 6.33334C5.33352 6.51015 5.40375 6.67972 5.52878 6.80474C5.6538 6.92977 5.82337 7.00001 6.00018 7.00001C6.17699 7.00001 6.34656 6.92977 6.47159 6.80474C6.59661 6.67972 6.66685 6.51015 6.66685 6.33334C6.66685 6.15653 6.59661 5.98696 6.47159 5.86194C6.34656 5.73691 6.17699 5.66667 6.00018 5.66667ZM2.01685 4.84667C2.01685 4.84667 2.48685 4.37334 2.49018 3.43334C2.37018 2.70334 2.65685 1.84667 3.31352 1.19334C4.29018 0.216674 5.71352 0.0566736 6.50018 0.83334C7.27685 1.62001 7.11685 3.04334 6.14018 4.02001C5.48685 4.67667 4.63018 4.96334 3.90018 4.84334C2.96018 4.84667 2.48685 5.31667 2.48685 5.31667L1.07352 6.73001L0.603516 6.26001L2.01685 4.84667ZM6.02352 1.31001C5.50018 0.790007 4.50018 0.946674 3.78352 1.66667C3.07018 2.38001 2.91018 3.38334 3.43018 3.90334C3.95352 4.42334 4.95352 4.26334 5.66685 3.55001C6.38685 2.83334 6.54352 1.83334 6.02352 1.31001Z" fill="white"/>
</g>
<defs>
<clipPath id="clip0_453_207">
<rect width="8" height="8" fill="white"/>
</clipPath>
</defs>
</svg>
