<svg width="10" height="10" viewBox="0 0 10 10" fill="none" xmlns="http://www.w3.org/2000/svg">
<g clip-path="url(#clip0_453_194)">
<path d="M2.83398 9.75V8.91667C3.09787 8.91667 3.29579 8.84722 3.42773 8.70833C3.55968 8.56944 3.8201 8.5 4.20898 8.5C4.59787 8.5 4.86523 8.56944 5.01107 8.70833C5.1569 8.84722 5.35482 8.91667 5.60482 8.91667C5.85482 8.91667 6.05273 8.84722 6.19857 8.70833C6.3444 8.56944 6.61176 8.5 7.00065 8.5C7.38954 8.5 7.6569 8.56944 7.80273 8.70833C7.94857 8.84722 8.14648 8.91667 8.39648 8.91667C8.64648 8.91667 8.8444 8.84722 8.99023 8.70833C9.13607 8.56944 9.40343 8.5 9.79232 8.5C10.1812 8.5 10.4416 8.56944 10.5736 8.70833C10.7055 8.84722 10.9034 8.91667 11.1673 8.91667V9.75C10.7576 9.75 10.4886 9.68056 10.3602 9.54167C10.2319 9.40278 10.0426 9.33333 9.79232 9.33333C9.54204 9.33333 9.34412 9.40278 9.19857 9.54167C9.05301 9.68056 8.78565 9.75 8.39648 9.75C8.00732 9.75 7.73996 9.68056 7.5944 9.54167C7.44885 9.40278 7.25093 9.33333 7.00065 9.33333C6.75037 9.33333 6.55246 9.40278 6.4069 9.54167C6.26135 9.68056 5.99398 9.75 5.60482 9.75C5.21565 9.75 4.94829 9.68056 4.80273 9.54167C4.65718 9.40278 4.45926 9.33333 4.20898 9.33333C3.95871 9.33333 3.7694 9.40278 3.64107 9.54167C3.51273 9.68056 3.24371 9.75 2.83398 9.75ZM2.83398 7.875V7.04167C3.09787 7.04167 3.29579 6.97222 3.42773 6.83333C3.55968 6.69444 3.8201 6.625 4.20898 6.625C4.59787 6.625 4.86704 6.69444 5.01648 6.83333C5.16593 6.97222 5.36204 7.04167 5.60482 7.04167C5.85482 7.04167 6.05273 6.97222 6.19857 6.83333C6.3444 6.69444 6.61176 6.625 7.00065 6.625C7.38954 6.625 7.6569 6.69444 7.80273 6.83333C7.94857 6.97222 8.14648 7.04167 8.39648 7.04167C8.64648 7.04167 8.8444 6.97222 8.99023 6.83333C9.13607 6.69444 9.40343 6.625 9.79232 6.625C10.1812 6.625 10.4416 6.69444 10.5736 6.83333C10.7055 6.97222 10.9034 7.04167 11.1673 7.04167V7.875C10.7576 7.875 10.4886 7.80556 10.3602 7.66667C10.2319 7.52778 10.0426 7.45833 9.79232 7.45833C9.54204 7.45833 9.34926 7.52778 9.21398 7.66667C9.07871 7.80556 8.80621 7.875 8.39648 7.875C8.00065 7.875 7.73162 7.80556 7.5894 7.66667C7.44718 7.52778 7.25093 7.45833 7.00065 7.45833C6.73676 7.45833 6.54065 7.52778 6.41232 7.66667C6.28398 7.80556 6.01482 7.875 5.60482 7.875C5.19482 7.875 4.92218 7.80556 4.7869 7.66667C4.65162 7.52778 4.45898 7.45833 4.20898 7.45833C3.95898 7.45833 3.76982 7.52778 3.64148 7.66667C3.51315 7.80556 3.24398 7.875 2.83398 7.875ZM4.87565 5.75L6.26107 4.36458L5.8444 3.94792C5.61523 3.71875 5.37218 3.55208 5.11523 3.44792C4.85829 3.34375 4.54232 3.29167 4.16732 3.29167V2.25C4.68815 2.25 5.11871 2.30736 5.45898 2.42208C5.79926 2.53681 6.1326 2.75722 6.45898 3.08333L9.12565 5.75C9.0076 5.82639 8.89301 5.88722 8.7819 5.9325C8.67079 5.97778 8.54232 6.00028 8.39648 6C8.14648 6 7.94857 5.93056 7.80273 5.79167C7.6569 5.65278 7.38954 5.58333 7.00065 5.58333C6.61176 5.58333 6.3444 5.65278 6.19857 5.79167C6.05273 5.93056 5.85482 6 5.60482 6C5.45898 6 5.33051 5.9775 5.2194 5.9325C5.10829 5.8875 4.99371 5.82667 4.87565 5.75ZM8.95898 2.25C9.25065 2.25 9.49718 2.3525 9.69857 2.5575C9.89996 2.7625 10.0007 3.00722 10.0007 3.29167C10.0007 3.58333 9.89996 3.82986 9.69857 4.03125C9.49718 4.23264 9.25065 4.33333 8.95898 4.33333C8.66732 4.33333 8.42079 4.23264 8.2194 4.03125C8.01801 3.82986 7.91732 3.58333 7.91732 3.29167C7.91732 3.00695 8.01801 2.76208 8.2194 2.55708C8.42079 2.35208 8.66732 2.24972 8.95898 2.25Z" fill="white"/>
</g>
<defs>
<clipPath id="clip0_453_194">
<rect width="10" height="10" fill="white"/>
</clipPath>
</defs>
</svg>
