<svg width="12" height="12" viewBox="0 0 12 12" fill="none" xmlns="http://www.w3.org/2000/svg">
<path d="M10.155 8.22001L7.27003 3.23501C7.17216 3.06497 7.04168 2.91593 6.88606 2.79646C6.73045 2.67698 6.55278 2.5894 6.36323 2.53877C6.17369 2.48813 5.97601 2.47542 5.78155 2.50138C5.58708 2.52733 5.39966 2.59143 5.23003 2.69001C5.00003 2.82001 4.81503 3.00001 4.68003 3.23501L1.80003 8.22001C1.70122 8.38875 1.63691 8.57544 1.61084 8.76924C1.58477 8.96303 1.59745 9.16008 1.64815 9.34894C1.69886 9.5378 1.78657 9.7147 1.9062 9.86938C2.02583 10.0241 2.17499 10.1534 2.34503 10.25C2.57003 10.39 2.82503 10.46 3.09003 10.46H8.86503C9.06136 10.4593 9.25563 10.42 9.43676 10.3443C9.61789 10.2686 9.78233 10.1579 9.92069 10.0186C10.0591 9.87931 10.1686 9.71413 10.2431 9.5325C10.3177 9.35087 10.3557 9.15633 10.355 8.96001C10.355 8.70001 10.285 8.44501 10.155 8.22001ZM2.68503 8.71501L5.55503 3.73501C5.69003 3.50001 6.00003 3.41001 6.23003 3.55001C6.31003 3.59001 6.37503 3.65501 6.42003 3.73501L9.29003 8.71501C9.42503 8.95501 9.34503 9.25001 9.10503 9.39501C9.03003 9.44001 8.94503 9.46501 8.86003 9.46501H3.10503C2.83003 9.46001 2.60503 9.23501 2.61003 8.96001C2.61003 8.87501 2.63003 8.79001 2.67503 8.71501H2.68503ZM5.98503 6.72501C5.43503 6.72501 5.00003 6.28001 5.00003 5.73001C5.00003 5.17501 5.43503 4.73001 5.98503 4.73001C6.25025 4.73001 6.5046 4.83536 6.69214 5.0229C6.87967 5.21044 6.98503 5.46479 6.98503 5.73001C6.98503 6.28001 6.53503 6.72501 5.97503 6.72501H5.98503ZM4.73003 8.96501C4.18003 8.96501 3.73503 8.52001 3.73503 7.97001C3.73503 7.42 4.18003 6.97501 4.73003 6.97501C5.28003 6.97501 5.73003 7.42 5.73003 7.97001C5.73003 8.52001 5.28003 8.96501 4.73003 8.96501ZM7.22003 8.96501C6.95654 8.96369 6.70422 8.85844 6.51791 8.67212C6.33159 8.48581 6.22634 8.23349 6.22503 7.97001C6.22634 7.70652 6.33159 7.4542 6.51791 7.26789C6.70422 7.08157 6.95654 6.97632 7.22003 6.97501C7.77003 6.97501 8.22003 7.42 8.22003 7.97001C8.22003 8.52001 7.77003 8.96501 7.22003 8.96501Z" fill="white"/>
</svg>
