<svg width="9" height="9" viewBox="0 0 9 9" fill="none" xmlns="http://www.w3.org/2000/svg">
<g clip-path="url(#clip0_453_90)">
<path d="M1.575 1.31252C1.575 1.01252 1.8375 0.712524 2.175 0.712524C2.5125 0.712524 2.775 0.975024 2.775 1.31252C2.775 1.65002 2.475 1.87502 2.175 1.87502C1.875 1.87502 1.575 1.61252 1.575 1.31252ZM8.25 1.46252L8.0625 1.12502L5.0625 2.66252L5.25 3.00002L8.25 1.46252ZM7.8 7.61252L8.1375 7.95002C7.9125 8.17502 7.6875 8.32502 7.425 8.43752C7.1625 8.55002 6.8625 8.62502 6.5625 8.62502H0.75V8.13752H1.7625L2.55 6.82502L1.6875 5.62502L1.3875 2.70002C1.3875 2.36252 1.6875 2.06252 2.025 2.06252C2.1375 2.06252 2.25 2.10002 2.325 2.13752L3.6375 3.11252L4.5 2.81252L4.8 3.41252L3.4875 3.97502C3.45 3.93752 2.8875 3.52502 2.475 3.18752L2.625 4.50002L4.6125 6.18752L5.25 8.13752H6.5625C6.7875 8.13752 7.0125 8.10002 7.2375 7.98752C7.4625 7.91252 7.65 7.76252 7.8 7.61252ZM2.625 8.13752H4.5L3.9 6.67502L3.0375 5.96252L3.4875 6.90002L2.625 8.13752Z" fill="white"/>
</g>
<defs>
<clipPath id="clip0_453_90">
<rect width="9" height="9" fill="white"/>
</clipPath>
</defs>
</svg>
