<svg width="10" height="10" viewBox="0 0 10 10" fill="none" xmlns="http://www.w3.org/2000/svg">
<path d="M5.00065 4.79171C4.72438 4.79171 4.45943 4.68196 4.26408 4.48661C4.06873 4.29126 3.95898 4.02631 3.95898 3.75004C3.95898 3.47377 4.06873 3.20882 4.26408 3.01347C4.45943 2.81812 4.72438 2.70837 5.00065 2.70837C5.27692 2.70837 5.54187 2.81812 5.73722 3.01347C5.93257 3.20882 6.04232 3.47377 6.04232 3.75004C6.04232 3.88683 6.01537 4.02229 5.96303 4.14867C5.91068 4.27505 5.83395 4.38988 5.73722 4.48661C5.64049 4.58334 5.52566 4.66007 5.39928 4.71242C5.2729 4.76476 5.13744 4.79171 5.00065 4.79171ZM5.00065 0.833374C4.2271 0.833374 3.48524 1.14066 2.93826 1.68765C2.39128 2.23463 2.08398 2.97649 2.08398 3.75004C2.08398 5.93754 5.00065 9.16671 5.00065 9.16671C5.00065 9.16671 7.91732 5.93754 7.91732 3.75004C7.91732 2.97649 7.61003 2.23463 7.06305 1.68765C6.51606 1.14066 5.7742 0.833374 5.00065 0.833374Z" fill="white"/>
</svg>
