<svg width="9" height="9" viewBox="0 0 9 9" fill="none" xmlns="http://www.w3.org/2000/svg">
<path fill-rule="evenodd" clip-rule="evenodd" d="M4.4552 2.0624C4.09707 2.10627 3.7577 2.2334 3.61445 2.35115C2.77895 3.0419 2.3072 3.95502 2.06232 4.75115C1.95688 5.08842 1.88627 5.43561 1.85157 5.78727C1.83882 5.9309 1.8272 6.08127 1.84895 6.2249C1.99257 6.38765 2.19582 6.50577 2.38445 6.60702C2.77857 6.8189 3.3707 7.03865 4.16682 7.12715C4.61757 7.1774 5.18682 7.2059 5.71182 7.1639C6.2567 7.12002 6.67445 7.00565 6.8912 6.83202C7.25645 6.5399 7.3487 6.19902 7.31533 5.90052C7.2797 5.57952 7.09932 5.30802 6.91782 5.1869C6.6047 4.9784 6.2522 4.9574 5.91995 5.0444C5.57795 5.1344 5.29708 5.3294 5.16433 5.48915C5.13102 5.52933 5.08969 5.56212 5.04299 5.58542C4.99629 5.60871 4.94524 5.622 4.8931 5.62444C4.84097 5.62687 4.7889 5.6184 4.74023 5.59956C4.69156 5.58072 4.64736 5.55193 4.61045 5.51502C4.4042 5.30877 4.05358 5.24877 3.5837 5.5619C3.53244 5.59613 3.47352 5.6172 3.41218 5.62323C3.35083 5.62927 3.28894 5.62009 3.23199 5.59651C3.17504 5.57293 3.12478 5.53567 3.08566 5.48803C3.04653 5.44039 3.01976 5.38385 3.0077 5.3234C2.90045 4.78565 2.95632 4.21415 3.05532 3.74277C3.15507 3.27065 3.30507 2.86452 3.41532 2.64477C3.4465 2.58257 3.49437 2.53026 3.55358 2.49371C3.61278 2.45716 3.68099 2.4378 3.75057 2.4378C3.82016 2.4378 3.88837 2.45716 3.94757 2.49371C4.00678 2.53026 4.05465 2.58257 4.08582 2.64477C4.16195 2.79627 4.30107 2.93202 4.46307 2.98902C4.5887 2.9099 4.69783 2.79927 4.78632 2.68115C4.94907 2.4644 5.00345 2.25927 4.93108 2.07815C4.78408 2.02565 4.60632 2.04402 4.4552 2.0624ZM5.01133 1.3259C5.19283 1.36077 5.45795 1.45152 5.58582 1.70727C5.86595 2.26752 5.63458 2.80002 5.38633 3.13115C5.22433 3.34715 5.01583 3.5504 4.7732 3.6749C4.72258 3.70115 4.61945 3.7499 4.50058 3.7499C4.27895 3.7499 4.06182 3.64902 3.8837 3.52302C3.84995 3.63777 3.81732 3.76377 3.7892 3.89727C3.73358 4.15342 3.70343 4.41444 3.6992 4.67652C4.09407 4.54902 4.49795 4.56252 4.84595 4.75902C5.10749 4.55364 5.40828 4.40395 5.72983 4.31915C6.21733 4.19127 6.80233 4.2089 7.3337 4.5629C7.71432 4.81677 8.0027 5.2949 8.06082 5.81802C8.12157 6.36327 7.9322 6.95952 7.35958 7.41777C6.95533 7.74102 6.3392 7.8659 5.7722 7.91127C5.18533 7.95852 4.56545 7.92627 4.08433 7.87265C3.19258 7.77365 2.50782 7.52465 2.02932 7.26777C1.71545 7.09902 1.28607 6.86577 1.14995 6.5084C1.05807 6.26615 1.08207 5.97215 1.10457 5.72015C1.13457 5.38977 1.20807 4.97727 1.3457 4.53027C1.6202 3.63815 2.15757 2.58252 3.1367 1.77327C3.43782 1.52427 3.94183 1.36977 4.3637 1.31802C4.5812 1.2914 4.80995 1.28765 5.01133 1.3259Z" fill="white"/>
</svg>
