<svg width="14" height="14" viewBox="0 0 14 14" fill="none" xmlns="http://www.w3.org/2000/svg">
<path d="M3.815 2.91667C3.85 3.43583 3.9375 3.94333 4.0775 4.4275L3.3775 5.1275C3.13833 4.4275 2.98667 3.68667 2.93417 2.91667H3.815ZM9.56667 9.92833C10.0625 10.0683 10.57 10.1558 11.0833 10.1908V11.06C10.3133 11.0075 9.5725 10.8558 8.86667 10.6225L9.56667 9.92833ZM4.375 1.75H2.33333C2.0125 1.75 1.75 2.0125 1.75 2.33333C1.75 7.81083 6.18917 12.25 11.6667 12.25C11.9875 12.25 12.25 11.9875 12.25 11.6667V9.63083C12.25 9.31 11.9875 9.0475 11.6667 9.0475C10.9433 9.0475 10.2375 8.93083 9.58417 8.715C9.52641 8.69343 9.46495 8.68351 9.40333 8.68583C9.25167 8.68583 9.10583 8.74417 8.98917 8.855L7.70583 10.1383C6.05236 9.29269 4.7073 7.94764 3.86167 6.29417L5.145 5.01083C5.30833 4.8475 5.355 4.62 5.29083 4.41583C5.06994 3.74377 4.95769 3.04077 4.95833 2.33333C4.95833 2.0125 4.69583 1.75 4.375 1.75Z" fill="white"/>
</svg>
