<svg width="40" height="40" viewBox="0 0 40 40" fill="none" xmlns="http://www.w3.org/2000/svg">
<circle cx="20" cy="20" r="20" fill="#803FC0"/>
<path d="M10.5 16.187C10.604 14.087 10.915 12.777 11.847 11.847C12.777 10.915 14.087 10.604 16.187 10.5M29.5 16.187C29.396 14.087 29.085 12.777 28.153 11.847C27.223 10.915 25.913 10.604 23.813 10.5M23.813 29.5C25.913 29.396 27.223 29.085 28.153 28.153C29.085 27.223 29.396 25.913 29.5 23.813M16.187 29.5C14.087 29.396 12.777 29.085 11.847 28.153C10.915 27.223 10.604 25.913 10.5 23.813M27.635 19.318C27.878 19.622 28 19.775 28 20C28 20.225 27.878 20.378 27.635 20.682C26.542 22.05 23.751 25 20 25C16.249 25 13.458 22.05 12.365 20.682C12.122 20.378 12 20.225 12 20C12 19.775 12.122 19.622 12.365 19.318C13.458 17.95 16.249 15 20 15C23.751 15 26.542 17.95 27.635 19.318Z" stroke="white" stroke-width="1.5" stroke-linecap="round" stroke-linejoin="round"/>
<path d="M22 20C22 19.4696 21.7893 18.9609 21.4142 18.5858C21.0391 18.2107 20.5304 18 20 18C19.4696 18 18.9609 18.2107 18.5858 18.5858C18.2107 18.9609 18 19.4696 18 20C18 20.5304 18.2107 21.0391 18.5858 21.4142C18.9609 21.7893 19.4696 22 20 22C20.5304 22 21.0391 21.7893 21.4142 21.4142C21.7893 21.0391 22 20.5304 22 20Z" stroke="white" stroke-width="1.5" stroke-linecap="round" stroke-linejoin="round"/>
</svg>
